<?xml version="1.0" encoding="UTF-8"?> <svg xmlns="http://www.w3.org/2000/svg" width="100" height="100" viewBox="0 0 100 100" fill="none"><style> .line-chart1-a {animation:line-chart1-a 2s infinite; transform-origin: 19.5px 99px;} .line-chart1-b {animation:line-chart1-b 2s infinite; transform-origin: 50.5px 99px;} .line-chart1-c {animation:line-chart1-c 2s infinite; transform-origin: 80px 99px;} @keyframes line-chart1-a { 0%{transform:scaleY(0);} 20%{transform:scaleY(1);} 100%{transform:scaleY(1);} } @keyframes line-chart1-b { 0%{transform:scaleY(0);} 40%{transform:scaleY(1);} 100%{transform:scaleY(1);} } @keyframes line-chart1-c { 0%{transform:scaleY(0);} 60%{transform:scaleY(1);} 100%{transform:scaleY(1);} } </style><path class="line-chart1-a" d="M15 57H25C26.6569 57 28 58.3431 28 60V99H12V60C12 58.3431 13.3431 57 15 57Z" fill="rgba(242,242,242,1)" stroke="rgba(65,62,65,1)" stroke-width="4.0px" style="animation-duration: 2s;"></path><path class="line-chart1-b" d="M45 27H55C56.6569 27 58 28.3431 58 30V99H42V30C42 28.3431 43.3431 27 45 27Z" fill="rgba(242,242,242,1)" stroke="rgba(65,62,65,1)" stroke-width="4.0px" style="animation-duration: 2s;"></path><path class="line-chart1-c" d="M75 44H85C86.6569 44 88 45.3431 88 47V99H72V47C72 45.3431 73.3431 44 75 44Z" fill="rgba(242,242,242,1)" stroke="rgba(65,62,65,1)" stroke-width="4.0px" style="animation-duration: 2s;"></path><line x1="4" y1="99" x2="97" y2="99" stroke="rgba(65,62,65,1)" stroke-width="4.0px"></line></svg> 