<?xml version="1.0" encoding="UTF-8"?> <svg xmlns="http://www.w3.org/2000/svg" width="100" height="100" viewBox="0 0 100 100" fill="none"><style> .line-tick3 {animation:line-tick3-tick 2s -1.3s infinite; stroke-dasharray: 110; stroke-dashoffset: 110;} @keyframes line-tick3-tick { 20%{stroke-dashoffset: 110;} 60%{stroke-dashoffset: 0;} 100%{stroke-dashoffset: 0;} } </style><path d="M67.2851 20.5C62.564 18.7113 56.647 14.5107 53.3348 11.9983C51.8285 10.8557 49.7276 10.84 48.205 11.9608C44.7965 14.4699 38.6556 18.7059 33.7851 20.5C30.0477 21.8767 24.6833 22.9648 21.485 23.5428C19.8595 23.8367 18.5542 25.0595 18.2839 26.6891C17.0797 33.9517 14.6902 54.3815 22.7851 68.75C29.048 79.8666 44.5112 87.6397 49.3283 89.8546C50.2614 90.2836 51.3138 90.2963 52.2551 89.8858C57.1028 87.7714 72.5973 80.2835 78.2851 68.75C86.5422 52.0065 83.7527 33.147 82.3676 26.4882C82.0494 24.9584 80.7994 23.8439 79.2636 23.5564C76.1815 22.9793 70.9274 21.88 67.2851 20.5Z" fill="rgba(242,242,242,1)" stroke="rgba(65,62,65,1)" stroke-width="4.0px"></path><circle cx="50" cy="50" r="19" fill="rgba(242,242,242,1)" stroke="rgba(65,62,65,1)" stroke-width="4.0px"></circle><path class="line-tick3" d="M40 52L46 58L61 43" stroke="rgba(65,62,65,1)" stroke-width="4.0px" style="animation-duration: 2s;"></path></svg> 