<?xml version="1.0" encoding="UTF-8"?> <svg xmlns="http://www.w3.org/2000/svg" width="100" height="100" viewBox="0 0 100 100" fill="none"><style> .line-cloud2-1 {animation:line-cloud2-1 5s infinite; opacity: 0;} .line-cloud2-2 {animation:line-cloud2-2 5s infinite; opacity: 0;} .line-cloud2-3 {animation:line-cloud2-3 5s infinite; opacity: 0;} .line-cloud2-4 {animation:line-cloud2-4 5s infinite; opacity: 0;} .line-cloud2-5 {animation:line-cloud2-5 5s infinite; opacity: 0;} .line-cloud2-6 {animation:line-cloud2-6 5s infinite; opacity: 0;} .line-cloud2-7 {animation:line-cloud2-7 5s infinite; opacity: 0;} .line-cloud2-8 {animation:line-cloud2-8 5s infinite; opacity: 0;} @keyframes line-cloud2-1 { 0%{opacity: 0;} 5%{opacity: 0;} 10%{opacity: 1;} 90%{opacity: 1;} 100%{opacity: 0;} } @keyframes line-cloud2-2 { 0%{opacity: 0;} 10%{opacity: 0;} 15%{opacity: 1;} 90%{opacity: 1;} 100%{opacity: 0;} } @keyframes line-cloud2-3 { 0%{opacity: 0;} 15%{opacity: 0;} 20%{opacity: 1;} 90%{opacity: 1;} 100%{opacity: 0;} } @keyframes line-cloud2-4 { 0%{opacity: 0;} 20%{opacity: 0;} 25%{opacity: 1;} 90%{opacity: 1;} 100%{opacity: 0;} } @keyframes line-cloud2-5 { 0%{opacity: 0;} 25%{opacity: 0;} 30%{opacity: 1;} 90%{opacity: 1;} 100%{opacity: 0;} } @keyframes line-cloud2-6 { 0%{opacity: 0;} 30%{opacity: 0;} 35%{opacity: 1;} 90%{opacity: 1;} 100%{opacity: 0;} } @keyframes line-cloud2-7 { 0%{opacity: 0;} 35%{opacity: 0;} 40%{opacity: 1;} 90%{opacity: 1;} 100%{opacity: 0;} } @keyframes line-cloud2-8 { 0%{opacity: 0;} 40%{opacity: 0;} 45%{opacity: 1;} 90%{opacity: 1;} 100%{opacity: 0;} } </style><g class="line-cloud2-1" style="animation-duration: 5s;"><path d="M56.75 18.5C56.75 22.0899 53.8399 25 50.25 25C46.6601 25 43.75 22.0899 43.75 18.5C43.75 14.9101 46.6601 12 50.25 12C53.8399 12 56.75 14.9101 56.75 18.5Z" fill="rgba(242,242,242,1)" stroke-width="4.0px"></path><path d="M50.25 25C53.8399 25 56.75 22.0899 56.75 18.5C56.75 14.9101 53.8399 12 50.25 12C46.6601 12 43.75 14.9101 43.75 18.5C43.75 22.0899 46.6601 25 50.25 25ZM50.25 25V48.5" stroke="rgba(65,62,65,1)" stroke-width="4.0px"></path></g><g class="line-cloud2-5" style="animation-duration: 5s;"><path d="M56.75 82C56.75 78.4101 53.8399 75.5 50.25 75.5C46.6601 75.5 43.75 78.4101 43.75 82C43.75 85.5899 46.6601 88.5 50.25 88.5C53.8399 88.5 56.75 85.5899 56.75 82Z" fill="rgba(242,242,242,1)" stroke-width="4.0px"></path><path d="M50.25 75.5C53.8399 75.5 56.75 78.4101 56.75 82C56.75 85.5899 53.8399 88.5 50.25 88.5C46.6601 88.5 43.75 85.5899 43.75 82C43.75 78.4101 46.6601 75.5 50.25 75.5ZM50.25 75.5V52" stroke="rgba(65,62,65,1)" stroke-width="4.0px"></path></g><g class="line-cloud2-3" style="animation-duration: 5s;"><path d="M82 56.75C78.4101 56.75 75.5 53.8399 75.5 50.25C75.5 46.6601 78.4101 43.75 82 43.75C85.5899 43.75 88.5 46.6601 88.5 50.25C88.5 53.8399 85.5899 56.75 82 56.75Z" fill="rgba(242,242,242,1)" stroke-width="4.0px"></path><path d="M75.5 50.25C75.5 53.8399 78.4101 56.75 82 56.75C85.5899 56.75 88.5 53.8399 88.5 50.25C88.5 46.6601 85.5899 43.75 82 43.75C78.4101 43.75 75.5 46.6601 75.5 50.25ZM75.5 50.25L52 50.25" stroke="rgba(65,62,65,1)" stroke-width="4.0px"></path></g><g class="line-cloud2-7" style="animation-duration: 5s;"><path d="M18.5 56.75C22.0899 56.75 25 53.8399 25 50.25C25 46.6601 22.0899 43.75 18.5 43.75C14.9101 43.75 12 46.6601 12 50.25C12 53.8399 14.9101 56.75 18.5 56.75Z" fill="rgba(242,242,242,1)" stroke-width="4.0px"></path><path d="M25 50.25C25 53.8399 22.0899 56.75 18.5 56.75C14.9101 56.75 12 53.8399 12 50.25C12 46.6601 14.9101 43.75 18.5 43.75C22.0899 43.75 25 46.6601 25 50.25ZM25 50.25L48.5 50.25" stroke="rgba(65,62,65,1)" stroke-width="4.0px"></path></g><g class="line-cloud2-4" style="animation-duration: 5s;"><path d="M68.1044 77.2968C65.566 74.7584 65.566 70.6428 68.1044 68.1044C70.6428 65.566 74.7584 65.566 77.2968 68.1044C79.8352 70.6428 79.8352 74.7584 77.2968 77.2968C74.7584 79.8352 70.6428 79.8352 68.1044 77.2968Z" fill="rgba(242,242,242,1)" stroke-width="4.0px"></path><path d="M68.1044 68.1044C65.566 70.6428 65.566 74.7584 68.1044 77.2968C70.6428 79.8352 74.7584 79.8352 77.2968 77.2968C79.8352 74.7584 79.8352 70.6428 77.2968 68.1044C74.7584 65.566 70.6428 65.566 68.1044 68.1044ZM68.1044 68.1044L51.4874 51.4874" stroke="rgba(65,62,65,1)" stroke-width="4.0px"></path></g><g class="line-cloud2-8" style="animation-duration: 5s;"><path d="M23.2032 32.3955C25.7416 34.934 29.8572 34.934 32.3956 32.3955C34.934 29.8571 34.934 25.7416 32.3956 23.2032C29.8572 20.6648 25.7416 20.6648 23.2032 23.2032C20.6648 25.7416 20.6648 29.8571 23.2032 32.3955Z" fill="rgba(242,242,242,1)" stroke-width="4.0px"></path><path d="M32.3956 32.3955C29.8572 34.934 25.7416 34.934 23.2032 32.3955C20.6648 29.8571 20.6648 25.7416 23.2032 23.2032C25.7416 20.6648 29.8572 20.6648 32.3956 23.2032C34.934 25.7416 34.934 29.8571 32.3956 32.3955ZM32.3956 32.3955L49.0126 49.0126" stroke="rgba(65,62,65,1)" stroke-width="4.0px"></path></g><g class="line-cloud2-6" style="animation-duration: 5s;"><path d="M23.2032 68.1044C25.7416 65.566 29.8572 65.566 32.3956 68.1044C34.934 70.6428 34.934 74.7584 32.3956 77.2968C29.8572 79.8352 25.7416 79.8352 23.2032 77.2968C20.6648 74.7584 20.6648 70.6428 23.2032 68.1044Z" fill="rgba(242,242,242,1)" stroke-width="4.0px"></path><path d="M32.3956 68.1044C29.8572 65.566 25.7416 65.566 23.2032 68.1044C20.6648 70.6428 20.6648 74.7584 23.2032 77.2968C25.7416 79.8352 29.8572 79.8352 32.3956 77.2968C34.934 74.7584 34.934 70.6428 32.3956 68.1044ZM32.3956 68.1044L49.0126 51.4874" stroke="rgba(65,62,65,1)" stroke-width="4.0px"></path></g><g class="line-cloud2-2" style="animation-duration: 5s;"><path d="M68.1045 23.2032C65.5661 25.7416 65.5661 29.8572 68.1045 32.3956C70.6429 34.934 74.7585 34.934 77.2969 32.3956C79.8353 29.8572 79.8353 25.7416 77.2969 23.2032C74.7585 20.6648 70.6429 20.6648 68.1045 23.2032Z" fill="rgba(242,242,242,1)" stroke-width="4.0px"></path><path d="M68.1045 32.3956C65.5661 29.8572 65.5661 25.7416 68.1045 23.2032C70.6429 20.6648 74.7585 20.6648 77.2969 23.2032C79.8353 25.7416 79.8353 29.8572 77.2969 32.3956C74.7585 34.934 70.6429 34.934 68.1045 32.3956ZM68.1045 32.3956L51.4875 49.0126" stroke="rgba(65,62,65,1)" stroke-width="4.0px"></path></g><path d="M62.3214 60H38.1786C38.1786 60 30.75 59.4817 30.75 52.8732C30.75 46.2648 38.1786 45.7465 38.1786 45.7465C38.1786 45.7465 41.3622 37 48.9898 37C57.8112 37 59.801 43.2845 59.801 43.2845C59.801 43.2845 60.7296 43.0607 62.3214 43.4141C68.1582 44.7099 69.75 47.8197 69.75 51.707C69.75 59.4817 62.3214 60 62.3214 60Z" fill="rgba(242,242,242,1)" stroke-width="4.0px"></path><path d="M54.6276 46.7831C54.6276 46.7831 55.2166 45.2282 57.0153 44.1916C58.003 43.6223 59.801 43.2845 59.801 43.2845M59.801 43.2845C59.801 43.2845 60.7296 43.0607 62.3214 43.4141C68.1582 44.7099 69.75 47.8197 69.75 51.707C69.75 59.4817 62.3214 60 62.3214 60H38.1786C38.1786 60 30.75 59.4817 30.75 52.8732C30.75 46.2648 38.1786 45.7465 38.1786 45.7465C38.1786 45.7465 41.3622 37 48.9898 37C57.8112 37 59.801 43.2845 59.801 43.2845Z" stroke="rgba(65,62,65,1)" stroke-width="4.0px"></path></svg> 