<?xml version="1.0" encoding="UTF-8"?> <svg xmlns="http://www.w3.org/2000/svg" width="100" height="100" viewBox="0 0 100 100" fill="none"><style> .line-gear4 {animation:line-gear4 2s linear infinite; transform-origin: 49.25px 50.25px;} @keyframes line-gear4 { 100%{transform: rotate(360deg);} } </style><path class="line-gear4" d="M42.6226 12V16.4314C42.6226 17.1753 42.2097 17.8578 41.5507 18.203L33.227 22.563C32.4521 22.9689 31.5034 22.8241 30.8848 22.2056L27.2255 18.5463C26.4445 17.7652 25.1782 17.7652 24.3971 18.5463L17.4861 25.4573C16.729 26.2144 16.7025 27.4336 17.426 28.2229L20.7868 31.8892C21.3563 32.5105 21.4752 33.4221 21.0842 34.1687L16.6936 42.5507C16.3484 43.2097 15.6659 43.6226 14.9219 43.6226H11C9.89543 43.6226 9 44.5181 9 45.6226V55.3774C9 56.4819 9.89543 57.3774 11 57.3774H15.4054C16.163 57.3774 16.8555 57.8054 17.1943 58.4829L21.5706 67.2356C21.97 68.0343 21.7915 69.0009 21.1332 69.6043L17.6719 72.7772C16.8325 73.5466 16.804 74.8606 17.6091 75.6657L24.4628 82.5195C25.2177 83.2744 26.4325 83.3033 27.2224 82.5851L30.4408 79.6593C31.032 79.1218 31.8864 78.9878 32.6138 79.3184L41.4502 83.335C42.1642 83.6596 42.6226 84.3715 42.6226 85.1558V89C42.6226 90.1046 43.5181 91 44.6226 91H54.3774C55.4819 91 56.3774 90.1046 56.3774 89V85.1792C56.3774 84.383 56.8497 83.6626 57.5799 83.3451L66.8456 79.3165C67.599 78.9889 68.4762 79.1555 69.0572 79.7365L71.7745 82.4537C72.5555 83.2348 73.8218 83.2348 74.6029 82.4537L81.4537 75.6029C82.2348 74.8218 82.2348 73.5555 81.4537 72.7745L78.2835 69.6042C77.6747 68.9955 77.5238 68.0656 77.9088 67.2956L82.3151 58.4829C82.6539 57.8054 83.3465 57.3774 84.104 57.3774H88C89.1046 57.3774 90 56.4819 90 55.3774V45.6226C90 44.5181 89.1046 43.6226 88 43.6226H83.2906C82.4297 43.6226 81.6654 43.0718 81.3932 42.2551L78.6144 33.9187C78.4069 33.296 78.518 32.6112 78.9118 32.0862L81.8272 28.199C82.4244 27.4028 82.3452 26.2886 81.6414 25.5848L74.6029 18.5463C73.8218 17.7652 72.5555 17.7652 71.7745 18.5463L68.565 21.7558C67.9755 22.3453 67.0821 22.5073 66.3231 22.1623L57.5498 18.1744C56.8358 17.8499 56.3774 17.138 56.3774 16.3537V12C56.3774 10.8954 55.4819 10 54.3774 10H44.6226C43.5181 10 42.6226 10.8954 42.6226 12Z" fill="rgba(242,242,242,1)" stroke="rgba(65,62,65,1)" stroke-width="4.0px" style="animation-duration: 12s;"></path><circle cx="49.2451" cy="50.2452" r="17.8302" stroke="rgba(65,62,65,1)" stroke-width="4.0px"></circle><path d="M54.0522 61.7541L54.5919 66.4411C54.6435 66.8892 54.3881 67.3129 53.9544 67.4366C53.1275 67.6725 51.6499 68 49.819 68C48.0588 68 46.6252 67.8108 45.7823 67.6652C45.3032 67.5824 44.9846 67.146 45.0201 66.6611L45.3781 61.7658C45.4049 61.3993 45.2302 61.0482 44.9283 60.8387C43.2154 59.6496 37.6126 55.4511 37.3212 51.219C37.0576 47.3919 41.1149 43.2104 43.4206 41.1591C44.0365 40.6111 44.9587 41.056 44.9587 41.8805L44.9587 50.4504C44.9587 51.0027 45.4064 51.4504 45.9587 51.4504L53.6792 51.4504C54.2315 51.4504 54.6792 51.0027 54.6792 50.4504L54.6792 41.4648C54.6792 40.6318 55.6147 40.189 56.2249 40.7559C58.3009 42.6844 61.7445 46.3891 61.8539 49.8304C62.005 54.5824 56.162 59.4861 54.4501 60.8184C54.1637 61.0413 54.0107 61.3935 54.0522 61.7541Z" fill="rgba(242,242,242,1)" stroke="rgba(65,62,65,1)" stroke-width="4.0px"></path></svg> 