<?xml version="1.0" encoding="UTF-8"?> <svg xmlns="http://www.w3.org/2000/svg" width="100" height="100" viewBox="0 0 100 100" fill="none"><style> .line-gear2 {animation:line-gear2 2s linear infinite; transform-origin: 49.5px 58.5px;} @keyframes line-gear2 { 100%{transform: rotate(360deg);} } </style><rect x="12" y="16" width="75" height="68" rx="4" fill="rgba(255,255,255,1)" stroke="rgba(65,62,65,1)" stroke-width="4.0px"></rect><path d="M12 20C12 17.7909 13.7909 16 16 16H83C85.2091 16 87 17.7909 87 20V34H12V20Z" fill="rgba(255,255,255,1)" stroke="rgba(65,62,65,1)" stroke-width="4.0px"></path><circle cx="22" cy="25" r="3" fill="rgba(255,255,255,1)" stroke="rgba(65,62,65,1)" stroke-width="4.0px"></circle><circle cx="34" cy="25" r="3" fill="rgba(255,255,255,1)" stroke="rgba(65,62,65,1)" stroke-width="4.0px"></circle><circle cx="46" cy="25" r="3" fill="rgba(255,255,255,1)" stroke="rgba(65,62,65,1)" stroke-width="4.0px"></circle><g class="line-gear2" style="animation-duration: 8s;"><path d="M50.3531 43H48.69C47.6837 43 46.8679 43.8158 46.8679 44.8221C46.8679 45.4998 46.4917 46.1216 45.8913 46.4361L44.0154 47.4187C43.2766 47.8057 42.372 47.6676 41.7823 47.0779C41.0376 46.3332 39.8303 46.3332 39.0856 47.0779L38.0242 48.1393C37.3003 48.8632 37.275 50.0289 37.9668 50.7837C38.5113 51.3777 38.625 52.2493 38.2511 52.9632L37.207 54.9564C36.9135 55.5168 36.3332 55.8679 35.7006 55.8679C34.7614 55.8679 34 56.6293 34 57.5685V59.3246C34 60.3228 34.8092 61.1321 35.8075 61.1321C36.4921 61.1321 37.1179 61.5189 37.4241 62.1312L38.474 64.2309C38.8263 64.9356 38.6688 65.7884 38.0881 66.3208C37.3475 66.9996 37.3223 68.1588 38.0327 68.8692L39.2216 70.058C39.9003 70.7368 40.9924 70.7628 41.7027 70.1171C42.2342 69.6339 43.0024 69.5134 43.6563 69.8106L45.8946 70.828C46.4874 71.0975 46.8679 71.6885 46.8679 72.3396C46.8679 73.2566 47.6113 74 48.5283 74H50.4834C51.394 74 52.1321 73.2619 52.1321 72.3514C52.1321 71.695 52.5214 71.1012 53.1234 70.8394L55.5921 69.7661C56.2101 69.4974 56.9296 69.634 57.4061 70.1105C58.0467 70.7511 59.0854 70.7511 59.726 70.1105L61.0241 68.8124C61.7124 68.124 61.7124 67.008 61.0241 66.3197C60.4876 65.7832 60.3546 64.9637 60.6939 64.2851L61.8042 62.0646C62.0899 61.4931 62.6741 61.1321 63.313 61.1321C64.2447 61.1321 65 60.3768 65 59.4451V57.6808C65 56.6796 64.1884 55.8679 63.1871 55.8679C62.4068 55.8679 61.7141 55.3686 61.4673 54.6283L60.8471 52.7677C60.6396 52.1451 60.7507 51.4603 61.1445 50.9353L61.2297 50.8216C61.8269 50.0254 61.7477 48.9112 61.0439 48.2074L59.8328 46.9963C59.1332 46.2967 57.9989 46.2967 57.2993 46.9963C56.7712 47.5244 55.971 47.6695 55.2912 47.3605L53.1749 46.3985C52.5398 46.1099 52.1321 45.4766 52.1321 44.779C52.1321 43.7965 51.3356 43 50.3531 43Z" fill="rgba(255,255,255,1)" stroke="rgba(65,62,65,1)" stroke-width="4.0px"></path><circle cx="49.4025" cy="58.4025" r="6.8239" fill="rgba(255,255,255,1)" stroke="rgba(65,62,65,1)" stroke-width="4.0px"></circle></g></svg> 