<?xml version="1.0" encoding="UTF-8"?> <svg xmlns="http://www.w3.org/2000/svg" width="100" height="100" viewBox="0 0 100 100" fill="none"><style> .line-copy1 {animation:line-copy1 3s infinite;} @keyframes line-copy1 { 0%{transform: translate3d(0, 0, 0);} 20%{transform: translate3d(0, 0, 0);} 50%{transform: translate3d(10px, -10px, 0);} 70%{transform: translate3d(10px, -10px, 0);} 100%{transform: translate3d(0, 0, 0);} } </style><path d="M15 91.3333V18H54.5833L75 38.4167V91.3333H15Z" fill="rgba(242,242,242,1)" stroke-width="4.0px"></path><path d="M75 38.4167V91.3333H15V18H54.5833M75 38.4167L54.5833 18M75 38.4167H54.5833V18" stroke="rgba(65,62,65,1)" stroke-width="4.0px"></path><line x1="26.25" y1="40.3334" x2="43.75" y2="40.3334" stroke="rgba(65,62,65,1)" stroke-width="4.0px"></line><line x1="26.25" y1="57" x2="62.9167" y2="57" stroke="rgba(65,62,65,1)" stroke-width="4.0px"></line><line x1="26.25" y1="73.6666" x2="62.9167" y2="73.6666" stroke="rgba(65,62,65,1)" stroke-width="4.0px"></line><g class="line-copy1" style="animation-duration: 3s;"><path d="M15 91.3333V18H54.5833L75 38.4167V91.3333H15Z" fill="rgba(242,242,242,1)" stroke-width="4.0px"></path><path d="M75 38.4167V91.3333H15V18H54.5833M75 38.4167L54.5833 18M75 38.4167H54.5833V18" stroke="rgba(65,62,65,1)" stroke-width="4.0px"></path><line x1="26.25" y1="40.3334" x2="43.75" y2="40.3334" stroke="rgba(65,62,65,1)" stroke-width="4.0px"></line><line x1="26.25" y1="57" x2="62.9167" y2="57" stroke="rgba(65,62,65,1)" stroke-width="4.0px"></line><line x1="26.25" y1="73.6666" x2="62.9167" y2="73.6666" stroke="rgba(65,62,65,1)" stroke-width="4.0px"></line></g></svg> 