<?xml version="1.0" encoding="UTF-8"?> <svg xmlns="http://www.w3.org/2000/svg" width="100" height="100" viewBox="0 0 100 100" fill="none"><style> .line-scanner3-card {animation:line-scanner3-card 4s 400ms infinite;} @keyframes line-scanner3-card { 0%{transform: translate3d(0,100px,0);} 20%{transform: translate3d(0px,0,0);} 60%{transform: translate3d(0px,0,0);} 100%{transform: translate3d(0px,100px,0);} } .line-scanner3-tick {animation:line-scanner3-tick 4s 600ms infinite; stroke-dasharray: 150; stroke-dashoffset: 160;} @keyframes line-scanner3-tick { 0%{stroke-dashoffset: 160;} 20%{stroke-dashoffset: 160;} 50%{stroke-dashoffset: 0; opacity: 1;} 80%{stroke-dashoffset: 0; opacity: 0;} 100%{stroke-dashoffset: 150; opacity: 0;} } </style><g class="line-scanner3-card" transform="translate(100, 0)" style="animation-duration: 4s;"><rect x="66" y="39" width="50" height="32" rx="4" transform="rotate(90 66 39)" fill="rgba(242,242,242,1)" stroke="rgba(65,62,65,1)" stroke-width="4.0px"></rect><path d="M40.5 74L40.5 83" stroke="rgba(65,62,65,1)" stroke-width="4.0px"></path><path d="M40.5 62L40.5 71" stroke="rgba(65,62,65,1)" stroke-width="4.0px"></path><circle cx="56.5" cy="79" r="4" transform="rotate(90 56.5 79)" fill="rgba(242,242,242,1)" stroke="rgba(65,62,65,1)" stroke-width="4.0px"></circle><circle cx="56.5" cy="71" r="4" transform="rotate(90 56.5 71)" fill="rgba(242,242,242,1)" stroke="rgba(65,62,65,1)" stroke-width="4.0px"></circle></g><rect x="28" y="12" width="44" height="66" rx="4" fill="rgba(242,242,242,1)" stroke="rgba(65,62,65,1)" stroke-width="4.0px"></rect><rect x="35" y="24" width="30" height="23" rx="2" fill="rgba(242,242,242,1)" fill-opacity="0.99" stroke="rgba(65,62,65,1)" stroke-width="4.0px"></rect><path class="line-scanner3-tick" d="M45 35.8L48.1429 39L56 31" stroke="rgba(65,62,65,1)" stroke-width="4.0px" style="animation-duration: 4s;"></path><rect x="35" y="53" width="7" height="7" rx="1" fill="rgba(242,242,242,1)" stroke="rgba(65,62,65,1)" stroke-width="4.0px"></rect><rect x="46.5" y="53" width="7" height="7" rx="1" fill="rgba(242,242,242,1)" stroke="rgba(65,62,65,1)" stroke-width="4.0px"></rect><rect x="58" y="53" width="7" height="7" rx="1" fill="rgba(242,242,242,1)" stroke="rgba(65,62,65,1)" stroke-width="4.0px"></rect><rect x="35" y="65" width="7" height="7" rx="1" fill="rgba(242,242,242,1)" stroke="rgba(65,62,65,1)" stroke-width="4.0px"></rect><rect x="46.5" y="65" width="7" height="7" rx="1" fill="rgba(242,242,242,1)" stroke="rgba(65,62,65,1)" stroke-width="4.0px"></rect><rect x="58" y="65" width="7" height="7" rx="1" fill="rgba(242,242,242,1)" stroke="rgba(65,62,65,1)" stroke-width="4.0px"></rect><path d="M34 18L66 18" stroke="rgba(65,62,65,1)" stroke-width="4.0px"></path></svg> 