<?xml version="1.0" encoding="UTF-8"?> <svg xmlns="http://www.w3.org/2000/svg" width="100" height="100" viewBox="0 0 100 100" fill="none"><style> .line-loading5 {animation:line-loading5-spin 1s infinite linear; transform-origin: 50px 50px;} @keyframes line-loading5-spin { 100%{transform:rotate(360deg);} } </style><g class="line-loading5" style="animation-duration: 8s;"><path d="M77.9467 18.374L71.2849 25.0358L64.5317 32.1863C63.9834 32.7668 64.3032 33.7242 65.0904 33.8586L81.2438 36.6165C81.9218 36.7323 82.5115 36.1448 82.3985 35.4664L79.6402 18.9168C79.5065 18.1144 78.5218 17.7989 77.9467 18.374Z" fill="rgba(242,242,242,1)" stroke-width="4.0px"></path><path d="M17.8706 49.6158C17.8706 49.6158 19.2887 28.2276 36.7783 20.3089C54.268 12.3901 71.2849 25.0358 71.2849 25.0358M71.2849 25.0358L77.9467 18.374C78.5218 17.7989 79.5065 18.1144 79.6402 18.9168L82.3985 35.4664C82.5115 36.1448 81.9218 36.7323 81.2438 36.6165L65.0904 33.8586C64.3032 33.7242 63.9834 32.7668 64.5317 32.1863L71.2849 25.0358Z" stroke="rgba(65,62,65,1)" stroke-width="4.0px"></path><path d="M22.5533 81.3303L29.2151 74.6686L35.9683 67.5181C36.5166 66.9375 36.1968 65.9801 35.4096 65.8457L19.2562 63.0878C18.5782 62.9721 17.9885 63.5595 18.1016 64.238L20.8598 80.7876C20.9935 81.5899 21.9782 81.9054 22.5533 81.3303Z" fill="rgba(242,242,242,1)" stroke-width="4.0px"></path><path d="M82.6294 50.0885C82.6294 50.0885 81.2113 71.4767 63.7217 79.3955C46.232 87.3143 29.2151 74.6686 29.2151 74.6686M29.2151 74.6686L22.5533 81.3303C21.9782 81.9054 20.9935 81.5899 20.8598 80.7876L18.1016 64.238C17.9885 63.5595 18.5782 62.9721 19.2562 63.0878L35.4096 65.8457C36.1968 65.9801 36.5166 66.9375 35.9683 67.5181L29.2151 74.6686Z" stroke="rgba(65,62,65,1)" stroke-width="4.0px"></path></g></svg> 